PathFileType	4	(X/Y/Z)	C:\Users\dbl\Desktop\20210112(1)\20210112\bx_n_10_1802.trc
DataRate	CameraRate	NumFrames	NumMarkers	Units	OrigDataRate	OrigDataStartFrame	OrigNumFrames
50.00	50.00	       5	43	mm	50.00	454	       518
Frame#	Time	Top.Head			R.Acromium			L.Acromium			Sternum			R.ASIS			L.ASIS			V.Sacral			R.Thigh.Upper			R.Thigh.Front			R.Thigh.Rear			R.Knee.Lat			R.Knee.Med			R.Shank.Upper			R.Shank.Front			R.Shank.Rear			R.Ankle.Lat			R.Midfoot.Lat			R.Toe.Lat			R.Toe.Tip			R.Toe.Med			R.Ankle.Med			R.Midfoot.Sup			R.Heel			L.Thigh.Upper			L.Thigh.Front			L.Thigh.Rear			L.Knee.Lat			L.Knee.Med			L.Shank.Upper			L.Shank.Front			L.Shank.Rear			L.Ankle.Lat			L.Midfoot.Lat			L.Toe.Lat			L.Toe.Tip			L.Toe.Med			L.Ankle.Med			L.Midfoot.Sup			L.Heel			origin1 front left			origin2 front right			origin 3 back right			origin 4 back leftt			
		X1	Y1	Z1	X2	Y2	Z2	X3	Y3	Z3	X4	Y4	Z4	X5	Y5	Z5	X6	Y6	Z6	X7	Y7	Z7	X8	Y8	Z8	X9	Y9	Z9	X10	Y10	Z10	X11	Y11	Z11	X12	Y12	Z12	X13	Y13	Z13	X14	Y14	Z14	X15	Y15	Z15	X16	Y16	Z16	X17	Y17	Z17	X18	Y18	Z18	X19	Y19	Z19	X20	Y20	Z20	X21	Y21	Z21	X22	Y22	Z22	X23	Y23	Z23	X24	Y24	Z24	X25	Y25	Z25	X26	Y26	Z26	X27	Y27	Z27	X28	Y28	Z28	X29	Y29	Z29	X30	Y30	Z30	X31	Y31	Z31	X32	Y32	Z32	X33	Y33	Z33	X34	Y34	Z34	X35	Y35	Z35	X36	Y36	Z36	X37	Y37	Z37	X38	Y38	Z38	X39	Y39	Z39	X40	Y40	Z40	X41	Y41	Z41	X42	Y42	Z42	X43	Y43	Z43	

454	9.060	-701.65942	94.93588	1849.42969	-667.07220	-83.52240	1540.05652	-681.56256	273.37811	1546.29175	-574.84998	91.38721	1358.49731	-579.34808	-20.56127	1062.04810	-586.90405	231.68277	1072.30798	-783.95825	85.15473	1048.04602	-647.90466	-82.40993	875.89398	-571.86829	-17.56528	806.32422	-672.69818	-67.61703	760.86658	-698.15649	-37.56517	616.40668	-675.61102	70.16627	579.15369	-706.44586	-33.57961	570.05786	-655.34528	11.07514	520.88281	-755.28107	-40.63856	490.92093	-757.63550	-12.21439	207.15918	-652.89215	-68.99806	159.29892	-610.40210	-77.72048	156.89232	-548.91431	-34.15191	163.99614	-595.01099	22.16408	169.33867	-709.55872	72.74917	217.39330	-667.06903	53.86618	160.19901	-786.29236	49.80955	176.77516	-667.38947	275.91632	876.93579	-562.13623	207.56485	820.02179	-673.32068	259.32938	746.11871	-701.14972	240.52466	643.03381	-656.52911	136.63962	580.49939	-700.03656	237.85399	578.56451	-647.01184	197.59180	534.15387	-743.75507	247.53476	505.94434	-765.31635	222.77896	206.69743	-660.17096	297.14746	159.21609	-623.59601	305.37842	159.19386	-554.99634	256.45886	165.57080	-590.33649	219.56596	173.39857	-707.12750	150.20299	214.48445	-672.47461	172.69302	156.32043	-792.33990	173.48558	185.45784	-527.96698	304.57681	146.84445	-517.30176	-72.73299	143.48868	-876.13953	-78.81139	141.45804	-882.47949	296.15390	144.70142	
455	9.080	-704.28619	95.39308	1849.13013	-668.52380	-83.14693	1540.11584	-683.07886	273.65497	1545.92212	-575.13763	91.75131	1358.66736	-578.52319	-19.86968	1061.85657	-585.15302	232.26195	1071.93311	-782.74506	86.25822	1047.91418	-647.20935	-81.87887	875.85321	-571.01086	-17.12699	806.30688	-672.02545	-67.06862	760.88324	-697.26239	-37.14611	616.47473	-674.70703	70.68657	579.19983	-705.67902	-33.01261	570.13470	-654.56879	11.61944	520.67584	-754.56683	-40.08985	491.10114	-757.54059	-12.01472	207.25368	-652.80383	-68.89104	159.37109	-610.36401	-77.63183	156.89507	-548.84698	-34.17691	163.92436	-594.95868	22.17038	169.25191	-709.46143	72.93398	217.27988	-666.97070	53.90408	159.99915	-786.15942	49.96457	176.84375	-666.19000	276.70657	876.82825	-561.53149	207.84451	819.39276	-673.03552	259.90689	745.96747	-701.76239	241.09341	643.17212	-657.61871	137.10699	580.54968	-700.91156	238.22736	578.62305	-647.95703	198.01410	534.36560	-744.49054	247.85028	505.76938	-765.35388	222.84380	206.67374	-660.19757	297.18326	159.07533	-623.56757	305.45486	159.13297	-554.98322	256.48230	165.56819	-590.34723	219.59642	173.41057	-707.23102	150.40535	214.62744	-672.50000	172.67065	156.37050	-792.39014	173.54854	185.44655	-527.98749	304.60809	146.84590	-517.25964	-72.71225	143.47655	-876.13293	-78.83849	141.46956	-882.48218	296.15460	144.70154	
456	9.100	-706.77948	95.91608	1848.76208	-670.01208	-82.79968	1540.06018	-684.23059	273.89523	1545.51318	-575.48505	92.02525	1358.69397	-577.76056	-19.24979	1061.61279	-583.51312	232.79393	1071.49133	-781.58795	87.37303	1047.68909	-646.63074	-81.38387	875.82629	-570.24780	-16.76581	806.23285	-671.46930	-66.45294	760.87598	-696.40179	-36.67208	616.65802	-673.74939	71.16433	579.18329	-704.95123	-32.39987	570.10876	-653.74677	12.12123	520.48199	-753.81830	-39.53089	491.29004	-757.43909	-11.74480	207.35461	-652.72400	-68.77689	159.45000	-610.34241	-77.54236	156.90993	-548.79407	-34.19687	163.87981	-594.87799	22.21424	169.14160	-709.32306	73.14480	217.15355	-666.81561	54.02022	159.77242	-786.04535	50.16621	176.92950	-665.06696	277.49094	876.72650	-560.95270	208.11491	818.79736	-672.85944	260.49393	745.86383	-702.39844	241.58398	643.33978	-658.74048	137.53690	580.71613	-701.87122	238.64967	578.74298	-648.93695	198.42563	534.57990	-745.27869	248.20703	505.68045	-765.41602	222.89305	206.62646	-660.24097	297.21268	158.94733	-623.54199	305.54337	159.09737	-554.99536	256.50269	165.57320	-590.35284	219.64043	173.41634	-707.32538	150.58716	214.69304	-672.48840	172.63528	156.45995	-792.43787	173.63297	185.42941	-528.01654	304.60309	146.80061	-517.20477	-72.64264	143.47128	-876.16107	-78.86263	141.52457	-882.47003	296.16089	144.72881	
457	9.120	-709.13428	96.50571	1848.30054	-671.55652	-82.48703	1539.89282	-685.03125	274.11551	1545.07654	-575.91956	92.18034	1358.59180	-577.02698	-18.77401	1061.32129	-582.03815	233.31317	1070.97827	-780.49774	88.44171	1047.41785	-646.09491	-80.88579	875.79602	-569.53973	-16.40701	806.09949	-670.92578	-65.81689	760.85931	-695.58673	-36.18774	616.92657	-672.90063	71.58239	579.05737	-704.22424	-31.83373	570.05695	-652.93457	12.59897	520.32788	-753.11627	-39.03377	491.42526	-757.31964	-11.46412	207.45244	-652.64966	-68.65038	159.55469	-610.33838	-77.46458	156.94408	-548.74994	-34.21334	163.88322	-594.79877	22.28741	169.00452	-709.16003	73.35599	217.03490	-666.64832	54.23046	159.59650	-786.00293	50.36705	177.02756	-664.03436	278.26520	876.60870	-560.42004	208.41319	818.25232	-672.75488	261.05087	745.79431	-703.02203	242.01794	643.50531	-659.89514	137.94698	580.94043	-702.85742	239.13451	578.90332	-649.93695	198.78197	534.74609	-746.14838	248.63138	505.69910	-765.52679	222.94351	206.54355	-660.30676	297.27002	158.85175	-623.52582	305.65326	159.08075	-555.01697	256.51440	165.57806	-590.35272	219.68507	173.42265	-707.40277	150.70679	214.69409	-672.45154	172.63597	156.57211	-792.48358	173.74710	185.39934	-528.05219	304.56519	146.71030	-517.17743	-72.51905	143.46663	-876.19904	-78.88640	141.57901	-882.45972	296.16214	144.75850	
458	9.140	-711.33691	97.15475	1847.76257	-673.17786	-82.22076	1539.63318	-685.51733	274.35590	1544.64258	-576.38812	92.21362	1358.41516	-576.31097	-18.45451	1061.07422	-580.66248	233.81558	1070.44312	-779.49622	89.43013	1047.14575	-645.55560	-80.40918	875.76837	-568.87561	-16.01944	805.95215	-670.31024	-65.21324	760.82745	-694.83838	-35.70524	617.13843	-672.18915	71.94466	578.82904	-703.47742	-31.40909	570.05035	-652.20197	13.06576	520.20264	-752.48645	-38.63637	491.47833	-757.20050	-11.23002	207.53383	-652.58026	-68.52105	159.69005	-610.34113	-77.39314	157.01157	-548.70215	-34.22788	163.92383	-594.76007	22.37958	168.85597	-709.01318	73.51775	216.93547	-666.52612	54.47985	159.50403	-786.02386	50.51886	177.10732	-663.08197	278.99191	876.44305	-559.94836	208.73546	817.70984	-672.66724	261.53824	745.70172	-703.59918	242.45483	643.63336	-661.02686	138.35757	581.08740	-703.80408	239.62708	579.01746	-650.90485	199.08333	534.82233	-747.05188	249.09583	505.78275	-765.66949	222.99806	206.43837	-660.38672	297.35410	158.77831	-623.51898	305.76733	159.07350	-555.03400	256.51617	165.57983	-590.34045	219.71295	173.43050	-707.48615	150.76082	214.67778	-672.43549	172.66600	156.67285	-792.53040	173.86516	185.35364	-528.08112	304.52652	146.62303	-517.21344	-72.38217	143.42007	-876.22119	-78.90627	141.60291	-882.46393	296.15402	144.76450	
